<svg width="17" height="17" viewBox="0 0 17 17" fill="none" xmlns="http://www.w3.org/2000/svg">
<g filter="url(#filter0_i_5499_280310)">
<rect width="16.4733" height="16.4733" fill="white"/>
<path d="M7.24441 9.49394C7.41348 9.32601 7.54568 9.20038 7.6728 9.06948C9.23128 7.45009 10.7902 5.83115 12.3495 4.21265C12.5259 4.00755 12.7427 3.84431 12.9851 3.73398C13.1796 3.65116 13.3953 3.63955 13.597 3.70106C13.7986 3.76257 13.9742 3.89354 14.0949 4.07249C14.2316 4.23775 14.3108 4.44606 14.3198 4.66387C14.3288 4.88168 14.267 5.09629 14.1444 5.27314C14.0427 5.4299 13.9251 5.57487 13.7936 5.70553C11.9453 7.63257 10.0953 9.55785 8.24357 11.4814C7.51517 12.2377 7.04611 12.2404 6.29737 11.4946C5.54864 10.7488 4.7872 9.99377 4.03592 9.23609C3.73211 8.92931 3.57321 8.55642 3.70923 8.11213C3.83635 7.70089 4.12237 7.38089 4.5266 7.39676C4.87966 7.42029 5.21749 7.55496 5.49525 7.78288C6.09907 8.29593 6.63551 8.887 7.24441 9.49394Z" fill="#007BDA" stroke="black" stroke-width="0.155413"/>
</g>
<defs>
<filter id="filter0_i_5499_280310" x="0" y="0" width="16.4736" height="17.3878" filterUnits="userSpaceOnUse" color-interpolation-filters="sRGB">
<feFlood flood-opacity="0" result="BackgroundImageFix"/>
<feBlend mode="normal" in="SourceGraphic" in2="BackgroundImageFix" result="shape"/>
<feColorMatrix in="SourceAlpha" type="matrix" values="0 0 0 0 0 0 0 0 0 0 0 0 0 0 0 0 0 0 127 0" result="hardAlpha"/>
<feOffset dy="0.915183"/>
<feGaussianBlur stdDeviation="0.915183"/>
<feComposite in2="hardAlpha" operator="arithmetic" k2="-1" k3="1"/>
<feColorMatrix type="matrix" values="0 0 0 0 0.67451 0 0 0 0 0.67451 0 0 0 0 0.67451 0 0 0 1 0"/>
<feBlend mode="normal" in2="shape" result="effect1_innerShadow_5499_280310"/>
</filter>
</defs>
</svg>
