<svg width="51" height="51" viewBox="0 0 51 51" fill="none" xmlns="http://www.w3.org/2000/svg">
<g filter="url(#filter0_d_5540_256060)">
<path d="M26.5087 46.158C39.0208 46.158 49.1638 36.0149 49.1638 23.5028C49.1638 10.9907 39.0208 0.847656 26.5087 0.847656C13.9966 0.847656 3.85352 10.9907 3.85352 23.5028C3.85352 36.0149 13.9966 46.158 26.5087 46.158Z" fill="#5A92BE"/>
</g>
<path d="M26.5028 1.69532C30.8164 1.69421 35.0335 2.97239 38.6206 5.3682C42.2077 7.764 45.0036 11.1698 46.6549 15.1548C48.3062 19.1399 48.7385 23.5251 47.8972 27.7559C47.056 31.9866 44.9789 35.8729 41.9287 38.923C38.8785 41.9732 34.9923 44.0503 30.7615 44.8916C26.5308 45.7328 22.1455 45.3005 18.1605 43.6493C14.1755 41.998 10.7697 39.202 8.37385 35.6149C5.97804 32.0278 4.69986 27.8108 4.70098 23.4972C4.70098 17.715 6.99796 12.1696 11.0866 8.08093C15.1752 3.99229 20.7206 1.69532 26.5028 1.69532ZM26.5028 0C21.8542 1.34375e-07 17.3099 1.37855 13.4448 3.96132C9.57964 6.5441 6.56722 10.2151 4.78852 14.51C3.00981 18.8049 2.5447 23.5308 3.45202 28.0901C4.35934 32.6493 6.59834 36.8371 9.88583 40.1238C13.1733 43.4105 17.3617 45.6485 21.9211 46.5547C26.4806 47.461 31.2064 46.9947 35.5009 45.215C39.7954 43.4352 43.4656 40.4219 46.0475 36.5562C48.6293 32.6904 50.0068 28.1458 50.0057 23.4972C49.9997 17.2662 47.5214 11.2922 43.1149 6.88677C38.7084 2.48133 32.7338 0.00448846 26.5028 0Z" fill="white"/>
<path d="M24 20.2786C24 20.1551 24.134 20.0781 24.2406 20.1404L29.7631 23.3618C29.8689 23.4235 29.8689 23.5765 29.7631 23.6382L24.2406 26.8596C24.134 26.9219 24 26.8449 24 26.7214V20.2786Z" fill="white" stroke="white" stroke-width="0.5"/>
<defs>
<filter id="filter0_d_5540_256060" x="0.853516" y="0.847656" width="49.3105" height="49.3105" filterUnits="userSpaceOnUse" color-interpolation-filters="sRGB">
<feFlood flood-opacity="0" result="BackgroundImageFix"/>
<feColorMatrix in="SourceAlpha" type="matrix" values="0 0 0 0 0 0 0 0 0 0 0 0 0 0 0 0 0 0 127 0" result="hardAlpha"/>
<feOffset dx="-1" dy="2"/>
<feGaussianBlur stdDeviation="1"/>
<feComposite in2="hardAlpha" operator="out"/>
<feColorMatrix type="matrix" values="0 0 0 0 0 0 0 0 0 0 0 0 0 0 0 0 0 0 0.25 0"/>
<feBlend mode="normal" in2="BackgroundImageFix" result="effect1_dropShadow_5540_256060"/>
<feBlend mode="normal" in="SourceGraphic" in2="effect1_dropShadow_5540_256060" result="shape"/>
</filter>
</defs>
</svg>
