<svg width="34" height="35" viewBox="0 0 34 35" fill="none" xmlns="http://www.w3.org/2000/svg">
<path opacity="0.7" d="M32.9704 1H1.08338C1.03733 1 1 1.03733 1 1.08338V9.77094C1 9.81699 1.03733 9.85432 1.08338 9.85432H24.617C24.6631 9.85432 24.7004 9.89165 24.7004 9.9377V18.4271C24.7004 18.4732 24.7377 18.5105 24.7838 18.5105H32.9704C33.0165 18.5105 33.0538 18.4732 33.0538 18.4271V1.08338C33.0538 1.03733 33.0165 1 32.9704 1Z" fill="white" stroke="#54595E" stroke-width="0.377677" stroke-linejoin="round" stroke-dasharray="0.76 0.76"/>
<path opacity="0.7" d="M22.8339 11.8389H1.08338C1.03733 11.8389 1 11.8762 1 11.9223V33.7061C1 33.7522 1.03733 33.7895 1.08338 33.7895H11.4694C11.5155 33.7895 11.5528 33.7522 11.5528 33.7061V18.4262C11.5528 18.3801 11.5901 18.3428 11.6362 18.3428H22.8339C22.88 18.3428 22.9173 18.3054 22.9173 18.2594V11.9223C22.9173 11.8762 22.88 11.8389 22.8339 11.8389Z" fill="white" fill-opacity="0.65" stroke="#54595E" stroke-opacity="0.8" stroke-width="0.377677" stroke-linejoin="round" stroke-dasharray="0.76 0.76"/>
<rect x="13.4932" y="20.1777" width="19.4846" height="13.8226" rx="0.0833833" fill="#65F284" stroke="#1D1D1D" stroke-width="0.45" stroke-linejoin="round"/>
</svg>
