<svg width="20" height="15" viewBox="0 0 20 15" fill="none" xmlns="http://www.w3.org/2000/svg">
<path d="M8.16699 5.3724V2.53906C8.16699 1.97548 8.45672 1.43498 8.97245 1.03646C9.48817 0.637946 10.1876 0.414063 10.917 0.414062L14.5837 6.78906V14.5807H4.24366C3.80152 14.5846 3.37248 14.4648 3.03558 14.2436C2.69868 14.0223 2.47662 13.7144 2.41032 13.3766L1.14532 7.00156C1.10544 6.79852 1.12317 6.59121 1.19726 6.39399C1.27136 6.19677 1.40006 6.01435 1.57446 5.85939C1.74884 5.70442 1.96475 5.5806 2.20722 5.49651C2.44968 5.41242 2.71291 5.37007 2.97866 5.3724H8.16699ZM14.5837 14.5807H17.3337C17.8199 14.5807 18.2862 14.4315 18.63 14.1658C18.9738 13.9001 19.167 13.5398 19.167 13.1641V8.20573C19.167 7.83001 18.9738 7.46967 18.63 7.20399C18.2862 6.93832 17.8199 6.78906 17.3337 6.78906H14.5837" fill="#F28665"/>
<path d="M14.5837 14.5807H17.3337C17.8199 14.5807 18.2862 14.4315 18.63 14.1658C18.9738 13.9001 19.167 13.5398 19.167 13.1641V8.20573C19.167 7.83001 18.9738 7.46967 18.63 7.20399C18.2862 6.93832 17.8199 6.78906 17.3337 6.78906H14.5837M8.16699 5.3724V2.53906C8.16699 1.97548 8.45672 1.43498 8.97245 1.03646C9.48817 0.637946 10.1876 0.414063 10.917 0.414062L14.5837 6.78906V14.5807H4.24366C3.80152 14.5846 3.37248 14.4648 3.03558 14.2436C2.69868 14.0223 2.47662 13.7144 2.41032 13.3766L1.14533 7.00156C1.10544 6.79852 1.12316 6.59121 1.19726 6.39399C1.27136 6.19677 1.40007 6.01435 1.57446 5.85938C1.74885 5.70442 1.96475 5.5806 2.20722 5.49651C2.44968 5.41242 2.71291 5.37007 2.97866 5.3724H8.16699Z" stroke="white" stroke-width="0.5" stroke-linecap="round" stroke-linejoin="round"/>
</svg>
