<svg width="20" height="15" viewBox="0 0 20 15" fill="none" xmlns="http://www.w3.org/2000/svg">
<path d="M8.16699 5.37435V2.54102C8.16699 1.97743 8.45672 1.43693 8.97245 1.03841C9.48817 0.639899 10.1876 0.416016 10.917 0.416016L14.5837 6.79102V14.5827H4.24366C3.80152 14.5865 3.37248 14.4668 3.03558 14.2455C2.69868 14.0242 2.47662 13.7163 2.41032 13.3785L1.14532 7.00352C1.10544 6.80048 1.12317 6.59316 1.19726 6.39594C1.27136 6.19872 1.40006 6.01631 1.57446 5.86134C1.74884 5.70637 1.96475 5.58255 2.20722 5.49846C2.44968 5.41437 2.71291 5.37202 2.97866 5.37435H8.16699ZM14.5837 14.5827H17.3337C17.8199 14.5827 18.2862 14.4334 18.63 14.1677C18.9738 13.9021 19.167 13.5417 19.167 13.166V8.20768C19.167 7.83196 18.9738 7.47162 18.63 7.20595C18.2862 6.94027 17.8199 6.79102 17.3337 6.79102H14.5837" fill="white"/>
<path d="M14.5837 14.5827H17.3337C17.8199 14.5827 18.2862 14.4334 18.63 14.1677C18.9738 13.9021 19.167 13.5417 19.167 13.166V8.20768C19.167 7.83196 18.9738 7.47162 18.63 7.20595C18.2862 6.94027 17.8199 6.79102 17.3337 6.79102H14.5837M8.16699 5.37435V2.54102C8.16699 1.97743 8.45672 1.43693 8.97245 1.03841C9.48817 0.639899 10.1876 0.416016 10.917 0.416016L14.5837 6.79102V14.5827H4.24366C3.80152 14.5865 3.37248 14.4668 3.03558 14.2455C2.69868 14.0242 2.47662 13.7163 2.41032 13.3785L1.14533 7.00352C1.10544 6.80048 1.12316 6.59316 1.19726 6.39594C1.27136 6.19872 1.40007 6.01631 1.57446 5.86134C1.74885 5.70637 1.96475 5.58255 2.20722 5.49846C2.44968 5.41437 2.71291 5.37202 2.97866 5.37435H8.16699Z" stroke="#F28665" stroke-width="0.5" stroke-linecap="round" stroke-linejoin="round"/>
</svg>
