<svg width="21" height="21" viewBox="0 0 21 21" fill="none" xmlns="http://www.w3.org/2000/svg">
<path d="M20.2256 1H1.05014C1.02245 1 1 1.02245 1 1.05014V6.27446C1 6.30215 1.02245 6.3246 1.05014 6.3246H15.2022C15.2299 6.3246 15.2524 6.34705 15.2524 6.37474V11.4799C15.2524 11.5076 15.2748 11.53 15.3025 11.53H20.2256C20.2533 11.53 20.2758 11.5076 20.2758 11.4799V1.05014C20.2758 1.02245 20.2533 1 20.2256 1Z" fill="white" stroke="#54595E" stroke-width="0.227119" stroke-linejoin="round"/>
<path d="M14.13 7.51953H1.05014C1.02245 7.51953 1 7.54198 1 7.56967V20.6696C1 20.6972 1.02245 20.7197 1.05014 20.7197H7.29584C7.32353 20.7197 7.34598 20.6972 7.34598 20.6696V11.4808C7.34598 11.4531 7.36843 11.4307 7.39613 11.4307H14.13C14.1577 11.4307 14.1801 11.4082 14.1801 11.3805V7.56967C14.1801 7.54198 14.1577 7.51953 14.13 7.51953Z" fill="white" stroke="#54595E" stroke-width="0.227119" stroke-linejoin="round"/>
<rect x="8.51172" y="12.5312" width="11.7172" height="8.31229" rx="0.0501431" fill="white" stroke="#54595E" stroke-width="0.227119" stroke-linejoin="round"/>
</svg>
