<svg width="45" height="46" viewBox="0 0 45 46" fill="none" xmlns="http://www.w3.org/2000/svg">
<path d="M43.8624 1H1.11179C1.05005 1 1 1.05005 1 1.11179V12.7591C1 12.8208 1.05005 12.8709 1.11179 12.8709H32.6631C32.7248 12.8709 32.7748 12.9209 32.7748 12.9827V24.3643C32.7748 24.4261 32.8249 24.4761 32.8866 24.4761H43.8624C43.9241 24.4761 43.9742 24.4261 43.9742 24.3643V1.11179C43.9742 1.05005 43.9241 1 43.8624 1Z" fill="#65F284" stroke="#54595E" stroke-width="0.506348" stroke-linejoin="round"/>
<path d="M30.2725 15.5312H1.11179C1.05005 15.5312 1 15.5813 1 15.643V44.8484C1 44.9102 1.05005 44.9602 1.11179 44.9602H15.0362C15.0979 44.9602 15.148 44.9102 15.148 44.8484V24.3627C15.148 24.301 15.198 24.251 15.2598 24.251H30.2725C30.3342 24.251 30.3843 24.2009 30.3843 24.1392V15.643C30.3843 15.5813 30.3342 15.5312 30.2725 15.5312Z" fill="#F26565" stroke="#54595E" stroke-width="0.506348" stroke-linejoin="round"/>
<rect x="17.75" y="26.7109" width="26.1228" height="18.5318" rx="0.111791" fill="#65F284" stroke="#54595E" stroke-width="0.506348" stroke-linejoin="round"/>
</svg>
