<svg width="48" height="39" viewBox="0 0 48 39" fill="none" xmlns="http://www.w3.org/2000/svg">
<path d="M31.848 27.7194L23.6247 19.4961L15.4014 27.7194" stroke="#F28665" stroke-width="2" stroke-linecap="round" stroke-linejoin="round"/>
<path d="M23.6221 19.4961V37.9986" stroke="#F28665" stroke-width="2" stroke-linecap="round" stroke-linejoin="round"/>
<path d="M40.8735 32.6342C42.8786 31.541 44.4626 29.8113 45.3755 27.7179C46.2884 25.6246 46.4781 23.2868 45.9148 21.0736C45.3515 18.8604 44.0672 16.8978 42.2646 15.4956C40.462 14.0934 38.2438 13.3314 35.9601 13.3299H33.3697C32.7475 10.923 31.5877 8.68855 29.9775 6.79443C28.3673 4.90031 26.3488 3.39585 24.0735 2.39416C21.7982 1.39247 19.3254 0.91962 16.8411 1.01115C14.3568 1.10269 11.9255 1.75622 9.7301 2.92263C7.5347 4.08904 5.63228 5.73796 4.16588 7.74544C2.69948 9.75291 1.70725 12.0667 1.26379 14.5128C0.820323 16.959 0.937167 19.4738 1.60553 21.8683C2.2739 24.2628 3.4764 26.4746 5.12262 28.3375" stroke="#F28665" stroke-width="2" stroke-linecap="round" stroke-linejoin="round"/>
<path d="M31.848 27.7194L23.6247 19.4961L15.4014 27.7194" stroke="#F28665" stroke-width="2" stroke-linecap="round" stroke-linejoin="round"/>
</svg>
