<svg width="50" height="51" viewBox="0 0 50 51" fill="none" xmlns="http://www.w3.org/2000/svg">
<g filter="url(#filter0_d_5540_255657)">
<path d="M25.6552 46.158C38.1673 46.158 48.3103 36.0149 48.3103 23.5028C48.3103 10.9907 38.1673 0.847656 25.6552 0.847656C13.1431 0.847656 3 10.9907 3 23.5028C3 36.0149 13.1431 46.158 25.6552 46.158Z" fill="#043D69"/>
</g>
<path d="M25.6493 1.69532C29.9629 1.69421 34.18 2.97239 37.767 5.3682C41.3541 7.764 44.1501 11.1698 45.8014 15.1548C47.4526 19.1399 47.885 23.5251 47.0437 27.7559C46.2025 31.9866 44.1254 35.8729 41.0752 38.923C38.025 41.9732 34.1388 44.0503 29.908 44.8916C25.6772 45.7328 21.292 45.3005 17.307 43.6493C13.322 41.998 9.91614 39.202 7.52033 35.6149C5.12452 32.0278 3.84634 27.8108 3.84746 23.4972C3.84746 17.715 6.14444 12.1696 10.2331 8.08093C14.3217 3.99229 19.8671 1.69532 25.6493 1.69532ZM25.6493 0C21.0007 1.34375e-07 16.4564 1.37855 12.5913 3.96132C8.72612 6.5441 5.71371 10.2151 3.935 14.51C2.15629 18.8049 1.69119 23.5308 2.59851 28.0901C3.50583 32.6493 5.74482 36.8371 9.03232 40.1238C12.3198 43.4105 16.5081 45.6485 21.0676 46.5547C25.6271 47.461 30.3529 46.9947 34.6474 45.215C38.9419 43.4352 42.6121 40.4219 45.194 36.5562C47.7758 32.6904 49.1533 28.1458 49.1521 23.4972C49.1462 17.2662 46.6679 11.2922 42.2614 6.88677C37.8549 2.48133 31.8803 0.00448846 25.6493 0Z" fill="white"/>
<path d="M31 8.27857C31 8.15508 31.134 8.07814 31.2406 8.14036L36.7631 11.3618C36.8689 11.4235 36.8689 11.5765 36.7631 11.6382L31.2406 14.8596C31.134 14.9219 31 14.8449 31 14.7214V8.27857Z" fill="white" stroke="white" stroke-width="0.5"/>
<line x1="20.375" y1="29.4043" x2="30.3725" y2="29.4043" stroke="white" stroke-width="0.75" stroke-linecap="round"/>
<line x1="20.375" y1="31.2656" x2="30.3725" y2="31.2656" stroke="white" stroke-width="0.75" stroke-linecap="round"/>
<line x1="20.375" y1="33.2187" x2="30.3725" y2="33.2188" stroke="white" stroke-width="0.75" stroke-linecap="round"/>
<circle cx="25.5642" cy="22.7966" r="1.62667" stroke="white" stroke-width="0.75"/>
<path d="M25.0761 22.7491C25.0761 23.0215 25.2969 23.2423 25.5693 23.2423C25.8417 23.2423 26.0625 23.0215 26.0625 22.7491C26.0625 22.4767 25.8417 22.2559 25.5693 22.2559C25.2969 22.2559 25.0761 22.4767 25.0761 22.7491Z" fill="white"/>
<path d="M22.1562 19V19C21.1445 19 20.3243 19.8202 20.3243 20.8319L20.3243 21.0035" stroke="white" stroke-width="0.75" stroke-linecap="round"/>
<path d="M22.1562 26.4258V26.4258C21.1445 26.4258 20.3243 25.6056 20.3243 24.5939L20.3243 24.4223" stroke="white" stroke-width="0.75" stroke-linecap="round"/>
<path d="M30.6396 20.832V20.832C30.6396 19.8203 29.8195 19.0001 28.8077 19.0001L28.6362 19.0001" stroke="white" stroke-width="0.75" stroke-linecap="round"/>
<path d="M30.6396 24.5938V24.5938C30.6396 25.6055 29.8195 26.4257 28.8077 26.4257L28.6362 26.4257" stroke="white" stroke-width="0.75" stroke-linecap="round"/>
<defs>
<filter id="filter0_d_5540_255657" x="0" y="0.847656" width="49.3105" height="49.3105" filterUnits="userSpaceOnUse" color-interpolation-filters="sRGB">
<feFlood flood-opacity="0" result="BackgroundImageFix"/>
<feColorMatrix in="SourceAlpha" type="matrix" values="0 0 0 0 0 0 0 0 0 0 0 0 0 0 0 0 0 0 127 0" result="hardAlpha"/>
<feOffset dx="-1" dy="2"/>
<feGaussianBlur stdDeviation="1"/>
<feComposite in2="hardAlpha" operator="out"/>
<feColorMatrix type="matrix" values="0 0 0 0 0 0 0 0 0 0 0 0 0 0 0 0 0 0 0.25 0"/>
<feBlend mode="normal" in2="BackgroundImageFix" result="effect1_dropShadow_5540_255657"/>
<feBlend mode="normal" in="SourceGraphic" in2="effect1_dropShadow_5540_255657" result="shape"/>
</filter>
</defs>
</svg>
